M48
; DRILL file {KiCad 9.0.2} date 2025-06-23T12:50:14+0530
; FORMAT={-:-/ absolute / metric / decimal}
; #@! TF.CreationDate,2025-06-23T12:50:14+05:30
; #@! TF.GenerationSoftware,Kicad,Pcbnew,9.0.2
; #@! TF.FileFunction,Plated,1,2,PTH
FMAT,2
METRIC
; #@! TA.AperFunction,Plated,PTH,ViaDrill
T1C0.300
; #@! TA.AperFunction,Plated,PTH,ComponentDrill
T2C0.800
; #@! TA.AperFunction,Plated,PTH,ComponentDrill
T3C0.900
; #@! TA.AperFunction,Plated,PTH,ComponentDrill
T4C1.100
; #@! TA.AperFunction,Plated,PTH,ComponentDrill
T5C1.520
; #@! TA.AperFunction,Plated,PTH,ComponentDrill
T6C1.600
%
G90
G05
T1
X182.0Y-105.0
X189.0Y-114.5
T2
X171.25Y-104.5
X173.75Y-104.5
X178.75Y-106.5
X181.25Y-106.5
X183.795Y-112.0
X183.795Y-114.5
X185.69Y-96.5
X193.31Y-96.5
T3
X186.225Y-103.5
X188.765Y-103.5
T4
X157.92Y-98.0
X168.08Y-98.0
X175.46Y-98.45
X178.0Y-98.45
X180.54Y-98.45
T5
X198.0Y-107.96
X198.0Y-113.04
T6
X157.55Y-106.3
X162.25Y-103.3
X162.25Y-109.3
M30
